<?xml version="1.0" encoding="iso-8859-1"?>
<!-- Generator: Adobe Illustrator 19.0.0, SVG Export Plug-In . SVG Version: 6.00 Build 0)  -->
<svg version="1.1" id="Capa_1" xmlns="http://www.w3.org/2000/svg" xmlns:xlink="http://www.w3.org/1999/xlink" x="0px" y="0px"
	 viewBox="0 0 513.067 513.067" style="enable-background:new 0 0 513.067 513.067;" xml:space="preserve">
<path style="fill:#E8EAE9;" d="M448.533,29.867V483.2c0,16-12.8,29.867-29.867,29.867H94.4C78.4,512,64.533,499.2,64.533,482.133
	V29.867C64.533,12.8,78.4,0,94.4,0h324.267C434.667,0,448.533,12.8,448.533,29.867z"/>
<rect x="104" y="39.467" style="fill:#415A6B;" width="305.067" height="128"/>
<rect x="104" y="206.933" style="fill:#66C6B9;" width="132.267" height="113.067"/>
<rect x="275.733" y="206.933" style="fill:#8AD7F8;" width="132.267" height="113.067"/>
<rect x="104" y="359.467" style="fill:#FFD15C;" width="132.267" height="113.067"/>
<rect x="275.733" y="359.467" style="fill:#F3705A;" width="132.267" height="113.067"/>
<g>
	<path style="fill:#FFFFFF;" d="M162.667,295.467V272h-24.533v-16h24.533v-23.467h16V256H203.2v16h-24.533v23.467H162.667z"/>
	<path style="fill:#FFFFFF;" d="M312,292.267l21.333-29.867l-20.267-28.8h19.2l10.667,16l10.667-16h18.133l-20.267,27.733
		l21.333,30.933h-19.2l-11.733-18.133l-11.733,18.133L312,292.267L312,292.267z"/>
	<path style="fill:#FFFFFF;" d="M138.133,424.533v-17.067h64v17.067H138.133z"/>
	<path style="fill:#FFFFFF;" d="M310.933,405.333v-17.067h64v17.067H310.933z"/>
	<path style="fill:#FFFFFF;" d="M310.933,444.8v-18.133h64v17.067h-64V444.8z"/>
</g>
<g>
</g>
<g>
</g>
<g>
</g>
<g>
</g>
<g>
</g>
<g>
</g>
<g>
</g>
<g>
</g>
<g>
</g>
<g>
</g>
<g>
</g>
<g>
</g>
<g>
</g>
<g>
</g>
<g>
</g>
</svg>
