<?xml version="1.0" encoding="iso-8859-1"?>
<!-- Generator: Adobe Illustrator 19.0.0, SVG Export Plug-In . SVG Version: 6.00 Build 0)  -->
<svg version="1.1" id="Capa_1" xmlns="http://www.w3.org/2000/svg" xmlns:xlink="http://www.w3.org/1999/xlink" x="0px" y="0px"
	 viewBox="0 0 512 512" style="enable-background:new 0 0 512 512;" xml:space="preserve">
<g>
	<path style="fill:#556080;" d="M426.991,145.067H285.867V59.733h141.124c16.316,0,29.542,13.227,29.542,29.542v26.257
		C456.533,131.84,443.307,145.067,426.991,145.067z"/>
	<path style="fill:#556080;" d="M251.733,230.4H85.009c-16.316,0-29.542-13.227-29.542-29.542v-26.257
		c0-16.307,13.227-29.534,29.542-29.534h166.724V230.4z"/>
	<path style="fill:#556080;" d="M401.391,315.733H285.867V230.4h115.524c16.316,0,29.542,13.227,29.542,29.542v26.257
		C430.933,302.507,417.707,315.733,401.391,315.733z"/>
</g>
<path style="fill:#7383BF;" d="M294.4,486.4h-51.2V34.133c0-14.14,11.46-25.6,25.6-25.6l0,0c14.14,0,25.6,11.46,25.6,25.6V486.4z"/>
<path style="fill:#E7ECED;" d="M362.667,503.467H174.933l0,0c0-18.85,15.283-34.133,34.133-34.133h119.467
	C347.383,469.333,362.667,484.617,362.667,503.467L362.667,503.467z"/>
<g>
	<path style="fill:#4D007E;" d="M362.667,512H174.933c-4.71,0-8.533-3.823-8.533-8.533c0-23.526,19.14-42.667,42.667-42.667h119.467
		c23.526,0,42.667,19.14,42.667,42.667C371.2,508.177,367.377,512,362.667,512z M184.926,494.933h167.74
		c-3.524-9.933-13.013-17.067-24.141-17.067H209.067C197.939,477.867,188.45,485.001,184.926,494.933z"/>
	<path style="fill:#4D007E;" d="M405.333,512H132.267c-4.71,0-8.533-3.823-8.533-8.533s3.823-8.533,8.533-8.533h273.067
		c4.71,0,8.533,3.823,8.533,8.533C413.867,508.177,410.044,512,405.333,512z"/>
	<path style="fill:#4D007E;" d="M294.4,477.867h-51.2c-4.71,0-8.533-3.823-8.533-8.533v-435.2C234.667,15.309,249.975,0,268.8,0
		s34.133,15.309,34.133,34.133v435.2C302.933,474.044,299.11,477.867,294.4,477.867z M251.733,460.8h34.133V34.133
		c0-9.412-7.654-17.067-17.067-17.067s-17.067,7.654-17.067,17.067L251.733,460.8L251.733,460.8z"/>
	<path style="fill:#4D007E;" d="M426.991,153.6H294.4c-4.71,0-8.533-3.823-8.533-8.533V59.733c0-4.71,3.823-8.533,8.533-8.533
		h132.591c21.001,0,38.076,17.075,38.076,38.067v26.257C465.067,136.525,447.991,153.6,426.991,153.6z M302.933,136.533h124.058
		c11.588,0,21.009-9.421,21.009-21.001V89.276c0-11.588-9.421-21.009-21.009-21.009H302.933V136.533z"/>
	<path style="fill:#4D007E;" d="M243.2,238.933H85.009c-21.001,0-38.076-17.075-38.076-38.067v-26.257
		c0-21.001,17.075-38.076,38.076-38.076H243.2c4.71,0,8.533,3.823,8.533,8.533V230.4C251.733,235.11,247.91,238.933,243.2,238.933z
		 M85.009,153.6C73.421,153.6,64,163.021,64,174.601v26.257c0,11.588,9.421,21.009,21.009,21.009h149.658V153.6H85.009z"/>
	<path style="fill:#4D007E;" d="M401.391,324.267H294.4c-4.71,0-8.533-3.823-8.533-8.533V230.4c0-4.71,3.823-8.533,8.533-8.533
		h106.991c21.001,0,38.076,17.075,38.076,38.067v26.257C439.467,307.191,422.391,324.267,401.391,324.267z M302.933,307.2h98.458
		c11.588,0,21.009-9.421,21.009-21.001v-26.257c0-11.588-9.421-21.009-21.009-21.009h-98.458V307.2z"/>
</g>
<g>
</g>
<g>
</g>
<g>
</g>
<g>
</g>
<g>
</g>
<g>
</g>
<g>
</g>
<g>
</g>
<g>
</g>
<g>
</g>
<g>
</g>
<g>
</g>
<g>
</g>
<g>
</g>
<g>
</g>
</svg>
