<?xml version="1.0" encoding="iso-8859-1"?>
<!-- Generator: Adobe Illustrator 19.0.0, SVG Export Plug-In . SVG Version: 6.00 Build 0)  -->
<svg version="1.1" id="Layer_1" xmlns="http://www.w3.org/2000/svg" xmlns:xlink="http://www.w3.org/1999/xlink" x="0px" y="0px"
	 viewBox="0 0 512 512" style="enable-background:new 0 0 512 512;" xml:space="preserve">
<g>
	<rect x="60.976" y="161.55" style="fill:#EAC36E;" width="394.548" height="59.78"/>
	<rect x="60.976" y="343.281" style="fill:#EAC36E;" width="394.548" height="59.78"/>
</g>
<g>
	<polygon style="fill:#FCD577;" points="95.312,107.243 47.655,61.117 0,107.243 0,450.883 95.312,450.883 	"/>
	<polygon style="fill:#FCD577;" points="234.207,107.243 186.552,61.117 138.896,107.243 138.896,450.883 234.207,450.883 	"/>
	<polygon style="fill:#FCD577;" points="373.104,107.243 325.448,61.117 277.792,107.243 277.792,450.883 373.104,450.883 	"/>
	<polygon style="fill:#FCD577;" points="512,107.243 464.343,61.117 416.688,107.243 416.688,450.883 512,450.883 	"/>
</g>
<g>
	<circle style="fill:#415E72;" cx="464.347" cy="191.44" r="8.967"/>
	<circle style="fill:#415E72;" cx="464.347" cy="373.171" r="8.967"/>
	<circle style="fill:#415E72;" cx="325.442" cy="191.44" r="8.967"/>
	<circle style="fill:#415E72;" cx="325.442" cy="373.171" r="8.967"/>
	<circle style="fill:#415E72;" cx="186.549" cy="191.44" r="8.967"/>
	<circle style="fill:#415E72;" cx="186.549" cy="373.171" r="8.967"/>
	<circle style="fill:#415E72;" cx="47.654" cy="191.44" r="8.967"/>
	<circle style="fill:#415E72;" cx="47.654" cy="373.171" r="8.967"/>
</g>
<g>
</g>
<g>
</g>
<g>
</g>
<g>
</g>
<g>
</g>
<g>
</g>
<g>
</g>
<g>
</g>
<g>
</g>
<g>
</g>
<g>
</g>
<g>
</g>
<g>
</g>
<g>
</g>
<g>
</g>
</svg>
