<?xml version="1.0" encoding="iso-8859-1"?>
<!-- Generator: Adobe Illustrator 19.0.0, SVG Export Plug-In . SVG Version: 6.00 Build 0)  -->
<svg version="1.1" id="Layer_1" xmlns="http://www.w3.org/2000/svg" xmlns:xlink="http://www.w3.org/1999/xlink" x="0px" y="0px"
	 viewBox="0 0 512 512" style="enable-background:new 0 0 512 512;" xml:space="preserve">
<polygon style="fill:#C7D5DD;" points="377.24,457.08 114.184,457.08 114.184,100.832 377.24,100.832 377.24,116.832 
	130.184,116.832 130.184,441.08 377.24,441.08 "/>
<circle style="fill:#E04F5F;" cx="122.192" cy="278.976" r="122.192"/>
<path style="fill:#FFFFFF;" d="M116.232,342.672v-15.616c-9.152-0.096-18.12-2.528-26.072-7.056l4.344-15.136
	c7.616,4.512,16.272,6.952,25.12,7.088c10.144,0,17.072-4.992,17.072-12.72c0-7.248-5.64-11.912-17.552-16.264
	c-16.904-6.12-27.848-13.84-27.848-28.8c0-13.84,9.656-24.472,25.92-27.368v-15.832H130.4v14.976
	c7.712,0.088,15.304,1.896,22.216,5.312l-4.344,14.816c-6.76-3.544-14.264-5.424-21.896-5.48c-11.272,0-15.296,5.8-15.296,11.272
	c0,6.6,5.8,10.304,19.488,15.776c18.032,6.768,26.08,15.464,26.08,29.792c-0.312,15.144-12.096,27.56-27.2,28.664v16.576H116.232z"
	/>
<polygon style="fill:#415E72;" points="426.12,319.224 340.248,380.64 340.248,402.616 426.12,341.192 512,402.616 512,380.64 "/>
<polygon style="fill:#CFDCE5;" points="354.624,501.496 354.624,392.464 426.12,340.976 497.624,392.464 497.624,501.496 "/>
<g>
	<rect x="378.96" y="399.96" style="fill:#FFFFFF;" width="33.136" height="33.136"/>
	<rect x="440.16" y="399.96" style="fill:#FFFFFF;" width="33.136" height="33.136"/>
</g>
<ellipse style="fill:#32BEA6;" cx="413.608" cy="108.832" rx="98.392" ry="98.328"/>
<g>
	<polygon style="fill:#FFFFFF;" points="413.608,36.2 358.864,75.352 358.864,92.32 413.608,53.16 468.352,92.32 468.352,75.352 	
		"/>
	<polygon style="fill:#FFFFFF;" points="368.024,166.592 368.024,97.08 413.608,64.256 459.192,97.08 459.192,166.592 	"/>
</g>
<g>
</g>
<g>
</g>
<g>
</g>
<g>
</g>
<g>
</g>
<g>
</g>
<g>
</g>
<g>
</g>
<g>
</g>
<g>
</g>
<g>
</g>
<g>
</g>
<g>
</g>
<g>
</g>
<g>
</g>
</svg>
