<?xml version="1.0" encoding="iso-8859-1"?>
<!-- Generator: Adobe Illustrator 19.0.0, SVG Export Plug-In . SVG Version: 6.00 Build 0)  -->
<svg version="1.1" id="Layer_1" xmlns="http://www.w3.org/2000/svg" xmlns:xlink="http://www.w3.org/1999/xlink" x="0px" y="0px"
	 viewBox="0 0 512 512" style="enable-background:new 0 0 512 512;" xml:space="preserve">
<path style="fill:#D2D7D8;" d="M255.999,9.049L66.862,157.656v325.39h378.275c0-7.108,0-318.254,0-325.388L255.999,9.049z"/>
<polygon style="fill:#B1B9BA;" points="265.272,16.334 255.999,9.049 66.862,157.656 66.862,483.046 85.407,483.046 85.407,157.656 
	"/>
<path style="fill:#A55E3A;" d="M328.684,279.93c0,7.141-5.787,12.928-12.929,12.928H196.243c-7.142,0-12.929-5.787-12.929-12.928
	v-61.616c0-7.139,5.787-12.928,12.929-12.928h119.512c7.142,0,12.929,5.789,12.929,12.928V279.93z"/>
<path style="fill:#EFD89C;" d="M231.593,205.386v25.112c0,7.702,6.244,13.946,13.947,13.946h20.918
	c7.703,0,13.947-6.244,13.947-13.946v-25.112H231.593z"/>
<path style="fill:#767574;" d="M497.235,490.261v-2.717c0-12.007-9.733-21.74-21.74-21.74H36.503c-12.007,0-21.74,9.733-21.74,21.74
	v2.717c0,12.004,9.733,21.739,21.74,21.739h438.992C487.502,512,497.235,502.265,497.235,490.261z"/>
<path style="fill:#565452;" d="M475.495,488.901H36.503c-8.322,0-15.547-4.681-19.199-11.549c-2.803,5.272-2.541,9.543-2.541,12.908
	c0,12.004,9.733,21.739,21.74,21.739h438.992c12.007,0,21.74-9.735,21.74-21.739c0-3.236,0.291-7.585-2.542-12.908
	C491.039,484.221,483.817,488.901,475.495,488.901z"/>
<path style="fill:#E22437;" d="M343.529,54.843l138.806,95.664c10.58,7.269,13.266,21.738,5.998,32.32
	c-7.266,10.577-21.734,13.27-32.32,5.998L255.999,51.442L55.984,188.825c-10.582,7.268-25.052,4.584-32.319-5.998
	c-7.268-10.582-4.582-25.052,5.998-32.32L242.839,4.084c7.929-5.445,18.392-5.445,26.32,0l52.234,35.877"/>
<path style="fill:#C61832;" d="M487.401,155.239c-7.523,9.529-21.242,11.708-31.389,4.739L264.495,28.431
	c-0.322-0.192-0.65-0.397-0.996-0.633c-8.083-5.5-15,0-15,0l-0.038-0.025L55.984,159.979c-10.147,6.97-23.854,4.766-31.372-4.759
	c-6.18,7.786-6.869,18.986-0.947,27.607c7.268,10.582,21.737,13.266,32.319,5.998L255.999,51.442l200.014,137.383
	c10.586,7.271,25.055,4.58,32.32-5.998C494.249,174.213,493.566,163.024,487.401,155.239z"/>
<path style="fill:#D3B475;" d="M255.999,230.498v-25.112h-24.406v25.112c0,7.702,6.244,13.946,13.947,13.946
	c22.832,0,21.34,0.046,22.663-0.121C261.325,243.464,255.999,237.608,255.999,230.498z"/>
<path style="fill:#914E31;" d="M211.332,205.386h-15.089c-7.142,0-12.929,5.789-12.929,12.928v61.616
	c0,7.141,5.787,12.928,12.929,12.928h61.402C227.071,275.151,208.728,241.548,211.332,205.386z"/>
<path style="fill:#7F3F26;" d="M255.999,366.403c0,7.142-5.789,12.929-12.929,12.929H123.559c-7.142,0-12.929-5.787-12.929-12.929
	v-61.615c0-7.142,5.787-12.931,12.929-12.931H243.07c7.14,0,12.929,5.789,12.929,12.931L255.999,366.403L255.999,366.403z"/>
<path style="fill:#B56F48;" d="M401.37,366.403c0,7.142-5.789,12.929-12.931,12.929H268.927c-7.141,0-12.928-5.787-12.928-12.929
	v-61.615c0-7.142,5.787-12.931,12.928-12.931H388.44c7.142,0,12.931,5.789,12.931,12.931v61.615H401.37z"/>
<g>
	<path style="fill:#EFD89C;" d="M304.277,291.857v25.114c0,7.701,6.244,13.947,13.946,13.947h20.919
		c7.703,0,13.946-6.246,13.946-13.947v-25.114H304.277z"/>
	<path style="fill:#EFD89C;" d="M158.908,291.857v25.114c0,7.701,6.242,13.947,13.946,13.947h20.92
		c7.7,0,13.945-6.246,13.945-13.947v-25.114H158.908z"/>
</g>
<g>
	<path style="fill:#D3B475;" d="M328.684,316.972v-25.114h-24.406v25.114c0,7.701,6.244,13.947,13.946,13.947
		c22.857,0,21.32,0.046,22.664-0.121C334.01,329.938,328.684,324.081,328.684,316.972z"/>
	<path style="fill:#D3B475;" d="M183.314,316.972v-25.114h-24.406v25.114c0,7.701,6.242,13.947,13.946,13.947
		c22.835,0,21.342,0.046,22.662-0.121C188.639,329.938,183.314,324.081,183.314,316.972z"/>
</g>
<path style="fill:#6D3220;" d="M138.647,291.859h-15.092c-7.139,0-12.926,5.789-12.926,12.929v61.615
	c0,7.142,5.787,12.929,12.926,12.929h61.404C155.092,362.035,136,328.851,138.647,291.859z"/>
<path style="fill:#9B583A;" d="M284.017,291.859h-15.09c-7.141,0-12.928,5.789-12.928,12.929v61.615
	c0,7.142,5.787,12.929,12.928,12.929h61.402C299.772,361.635,281.41,328.038,284.017,291.859z"/>
<path style="fill:#A55E3A;" d="M401.37,452.876c0,7.141-5.789,12.928-12.931,12.928H268.927c-7.141,0-12.928-5.787-12.928-12.928
	v-61.615c0-7.14,5.787-12.929,12.928-12.929H388.44c7.142,0,12.931,5.789,12.931,12.929v61.615H401.37z"/>
<path style="fill:#EFD89C;" d="M304.277,378.332v25.112c0,7.702,6.244,13.946,13.946,13.946h20.919
	c7.703,0,13.946-6.244,13.946-13.946v-25.112H304.277z"/>
<path style="fill:#D3B475;" d="M328.684,403.444v-25.112h-24.406v25.112c0,7.702,6.244,13.946,13.946,13.946
	c22.814,0,21.355,0.046,22.664-0.121C334.01,416.411,328.684,410.556,328.684,403.444z"/>
<path style="fill:#964F2F;" d="M255.999,452.876c0,7.141-5.789,12.928-12.929,12.928H123.559c-7.142,0-12.929-5.787-12.929-12.928
	v-61.615c0-7.14,5.787-12.929,12.929-12.929H243.07c7.14,0,12.929,5.789,12.929,12.929L255.999,452.876L255.999,452.876z"/>
<path style="fill:#EFD89C;" d="M158.908,378.332v25.112c0,7.702,6.242,13.946,13.946,13.946h20.92c7.7,0,13.945-6.244,13.945-13.946
	v-25.112H158.908z"/>
<path style="fill:#D3B475;" d="M183.314,403.444v-25.112h-24.406v25.112c0,7.702,6.242,13.946,13.946,13.946
	c22.82,0,21.357,0.046,22.662-0.121C188.639,416.411,183.314,410.556,183.314,403.444z"/>
<g>
	<path style="fill:#844329;" d="M138.647,378.332h-15.092c-7.139,0-12.926,5.789-12.926,12.929v61.615
		c0,7.141,5.787,12.928,12.926,12.928h61.404C155.002,448.456,136.007,415.224,138.647,378.332z"/>
	<path style="fill:#844329;" d="M284.017,378.332h-15.09c-7.141,0-12.928,5.789-12.928,12.929v61.615
		c0,7.141,5.787,12.928,12.928,12.928h61.402C299.773,448.108,281.41,414.511,284.017,378.332z"/>
</g>
<g>
</g>
<g>
</g>
<g>
</g>
<g>
</g>
<g>
</g>
<g>
</g>
<g>
</g>
<g>
</g>
<g>
</g>
<g>
</g>
<g>
</g>
<g>
</g>
<g>
</g>
<g>
</g>
<g>
</g>
</svg>
