<?xml version="1.0" encoding="iso-8859-1"?>
<!-- Generator: Adobe Illustrator 19.0.0, SVG Export Plug-In . SVG Version: 6.00 Build 0)  -->
<svg version="1.1" id="Layer_1" xmlns="http://www.w3.org/2000/svg" xmlns:xlink="http://www.w3.org/1999/xlink" x="0px" y="0px"
	 viewBox="0 0 512 512" style="enable-background:new 0 0 512 512;" xml:space="preserve">
<g>
	<path style="fill:#BC342E;" d="M370.759,512H0c0-19.421,15.89-35.31,35.31-35.31h300.138
		C354.869,476.69,370.759,492.579,370.759,512"/>
	<path style="fill:#BC342E;" d="M357.517,211.862H13.241C6.179,211.862,0,205.683,0,198.621v-7.945
		c0-7.945,6.179-14.124,13.241-14.124h343.393c7.062,0,13.241,6.179,13.241,13.241v7.945
		C370.759,205.683,364.579,211.862,357.517,211.862"/>
</g>
<g>
	<path style="fill:#E15649;" d="M44.138,476.69h282.483V211.862H44.138V476.69z"/>
	<path style="fill:#E15649;" d="M44.138,176.552c0-77.683,63.559-141.241,141.241-141.241s141.241,63.559,141.241,141.241H44.138z"
		/>
</g>
<g>
	<path style="fill:#C7CBC7;" d="M326.621,317.793h35.31v-70.621h-35.31V317.793z"/>
	<path style="fill:#C7CBC7;" d="M8.828,317.793h35.31v-70.621H8.828V317.793z"/>
</g>
<g>
	<path style="fill:#BC342E;" d="M229.517,256v61.793h-88.276V256H97.103v176.552h44.138v-70.621h88.276v70.621h44.138V256H229.517z"
		/>
	<path style="fill:#BC342E;" d="M185.379,35.31c6.179,0,11.476,0.883,17.655,0.883V17.655C203.034,7.945,195.09,0,185.379,0
		c-9.71,0-17.655,7.945-17.655,17.655v18.538C173.903,36.193,179.2,35.31,185.379,35.31"/>
</g>
<path style="fill:#E8EDEE;" d="M467.862,353.103c0-58.262-47.669-105.931-105.931-105.931v70.621c19.421,0,35.31,15.89,35.31,35.31
	c0,58.262,56.497,105.931,114.759,105.931v-70.621C492.579,388.414,467.862,372.524,467.862,353.103"/>
<g>
</g>
<g>
</g>
<g>
</g>
<g>
</g>
<g>
</g>
<g>
</g>
<g>
</g>
<g>
</g>
<g>
</g>
<g>
</g>
<g>
</g>
<g>
</g>
<g>
</g>
<g>
</g>
<g>
</g>
</svg>
