<?xml version="1.0" encoding="iso-8859-1"?>
<!-- Generator: Adobe Illustrator 19.0.0, SVG Export Plug-In . SVG Version: 6.00 Build 0)  -->
<svg version="1.1" id="Layer_1" xmlns="http://www.w3.org/2000/svg" xmlns:xlink="http://www.w3.org/1999/xlink" x="0px" y="0px"
	 viewBox="0 0 512 512" style="enable-background:new 0 0 512 512;" xml:space="preserve">
<path style="fill:#38C7C2;" d="M480,184H160c-4.418,0-8,3.582-8,8v272c0,4.418,3.582,8,8,8h320c4.418,0,8-3.582,8-8V192
	C488,187.582,484.418,184,480,184z"/>
<path style="fill:#00B5B8;" d="M488,192c0-4.418-3.582-8-8-8H160c-4.418,0-8,3.582-8,8v88h336V192z"/>
<path style="fill:#38C7C2;" d="M504,152H136c-4.418,0-8,3.582-8,8v96c0,4.418,3.582,8,8,8h368c4.418,0,8-3.582,8-8v-96
	C512,155.582,508.418,152,504,152z"/>
<rect x="272" y="152" style="fill:#E6608D;" width="96" height="320"/>
<g>
	<circle style="fill:#F0F0F1;" cx="288" cy="160" r="8"/>
	<circle style="fill:#F0F0F1;" cx="320" cy="160" r="8"/>
	<circle style="fill:#F0F0F1;" cx="352" cy="160" r="8"/>
	<circle style="fill:#F0F0F1;" cx="288" cy="200" r="8"/>
	<circle style="fill:#F0F0F1;" cx="320" cy="200" r="8"/>
	<circle style="fill:#F0F0F1;" cx="352" cy="200" r="8"/>
	<circle style="fill:#F0F0F1;" cx="288" cy="240" r="8"/>
	<circle style="fill:#F0F0F1;" cx="320" cy="240" r="8"/>
	<circle style="fill:#F0F0F1;" cx="352" cy="240" r="8"/>
	<circle style="fill:#F0F0F1;" cx="288" cy="280" r="8"/>
	<circle style="fill:#F0F0F1;" cx="320" cy="280" r="8"/>
	<circle style="fill:#F0F0F1;" cx="352" cy="280" r="8"/>
	<circle style="fill:#F0F0F1;" cx="288" cy="320" r="8"/>
	<circle style="fill:#F0F0F1;" cx="320" cy="320" r="8"/>
	<circle style="fill:#F0F0F1;" cx="352" cy="320" r="8"/>
	<circle style="fill:#F0F0F1;" cx="288" cy="360" r="8"/>
	<circle style="fill:#F0F0F1;" cx="320" cy="360" r="8"/>
	<circle style="fill:#F0F0F1;" cx="352" cy="360" r="8"/>
	<circle style="fill:#F0F0F1;" cx="288" cy="400" r="8"/>
	<circle style="fill:#F0F0F1;" cx="320" cy="400" r="8"/>
	<circle style="fill:#F0F0F1;" cx="352" cy="400" r="8"/>
	<circle style="fill:#F0F0F1;" cx="288" cy="440" r="8"/>
	<circle style="fill:#F0F0F1;" cx="320" cy="440" r="8"/>
	<circle style="fill:#F0F0F1;" cx="352" cy="440" r="8"/>
</g>
<path style="fill:#D4506F;" d="M458.962,92.529c-4.18-9.833-11.939-17.449-21.848-21.446c-9.908-3.996-20.781-3.896-30.613,0.285
	c-11.573,4.92-46.838,34.587-70.585,55.181C345.576,96.637,359.08,52.575,359.08,40c0-22.056-17.944-40-40-40s-40,17.944-40,40
	c0,12.575,13.504,56.637,23.165,86.549c-23.747-20.594-59.013-50.261-70.586-55.181c-20.299-8.629-43.832,0.863-52.462,21.161
	c-8.629,20.297,0.863,43.832,21.161,52.461c16.988,7.223,107.822,14.214,118.124,14.987c0.197,0.015,0.394,0.022,0.59,0.022
	c0.002,0,0.004,0,0.006,0c0.001,0,0.001,0,0.002,0h0.001h0.001c0.001,0,0.001,0,0.002,0c0.002,0,0.004,0,0.006,0
	c0.196,0,0.393-0.007,0.59-0.022c10.302-0.773,101.134-7.765,118.122-14.987c9.833-4.181,17.449-11.94,21.446-21.849
	C463.243,113.233,463.143,102.361,458.962,92.529z M319.08,16c13.233,0,24,10.766,24,24c0,9.642-12.689,51.792-24,86.593
	c-11.311-34.8-24-76.951-24-86.593C295.08,26.766,305.847,16,319.08,16z M206.618,130.266
	c-12.179-5.178-17.875-19.298-12.697-31.477c5.111-12.021,19.44-17.815,31.478-12.697c8.873,3.772,42.699,31.941,70.299,55.967
	C259.246,138.852,215.491,134.038,206.618,130.266z M444.408,117.157c-2.397,5.945-6.968,10.601-12.867,13.109
	c-8.873,3.772-52.628,8.586-89.079,11.793c27.601-24.025,61.426-52.195,70.299-55.967c5.835-2.481,12.488-2.543,18.368-0.171
	c5.945,2.398,10.601,6.968,13.108,12.868C446.746,104.688,446.807,111.211,444.408,117.157z"/>
<path style="fill:#F0F0F1;" d="M304,296H24c-13.234,0-24,10.766-24,24v168c0,13.234,10.766,24,24,24h280c13.233,0,24-10.766,24-24
	V320C328,306.766,317.233,296,304,296z"/>
<path style="fill:#E1E0E4;" d="M24,488V320c0-13.234,10.766-24,24-24H24c-13.234,0-24,10.766-24,24v168c0,13.234,10.766,24,24,24h24
	C34.766,512,24,501.234,24,488z"/>
<path style="fill:#E6608D;" d="M212.941,352.443c-7.409-5.356-26.775-15.025-52.941,4.267c-26.166-19.292-45.533-9.623-52.941-4.267
	c-17.095,12.357-23.841,38.175-15.358,58.776c11.554,28.06,62.062,58.377,64.207,59.654c2.497,1.487,5.689,1.487,8.186,0
	c2.145-1.277,52.652-31.595,64.207-59.654C236.782,390.618,230.036,364.8,212.941,352.443z"/>
<path style="fill:#D4506F;" d="M107.657,411.219c-8.483-20.601-1.737-46.419,15.358-58.776c2.979-2.153,7.894-5.001,14.404-6.386
	c-14.618-2.959-25.291,2.721-30.36,6.386c-17.095,12.357-23.841,38.175-15.358,58.776c11.554,28.06,62.062,58.377,64.207,59.654
	c2.497,1.487,5.689,1.487,8.186,0c0.319-0.19,1.714-1.027,3.885-2.398C155.551,460.624,117.493,435.106,107.657,411.219z"/>
<g>
</g>
<g>
</g>
<g>
</g>
<g>
</g>
<g>
</g>
<g>
</g>
<g>
</g>
<g>
</g>
<g>
</g>
<g>
</g>
<g>
</g>
<g>
</g>
<g>
</g>
<g>
</g>
<g>
</g>
</svg>
